<?xml version="1.0" encoding="UTF-8" standalone="no"?>
<!DOCTYPE svg PUBLIC "-//W3C//DTD SVG 1.1//EN" "http://www.w3.org/Graphics/SVG/1.1/DTD/svg11.dtd">
<svg width="100%" height="100%" viewBox="0 0 598 598" version="1.1" xmlns="http://www.w3.org/2000/svg" xmlns:xlink="http://www.w3.org/1999/xlink" xml:space="preserve" xmlns:serif="http://www.serif.com/" style="fill-rule:evenodd;clip-rule:evenodd;stroke-linejoin:round;stroke-miterlimit:2;">
    <g transform="matrix(0.993557,0,0,1.00078,0.0430304,-0.0143372)">
        <ellipse cx="298.559" cy="308.225" rx="291.881" ry="289.775" style="fill:rgb(213,254,108);"/>
    </g>
    <g transform="matrix(1.67486,0,0,1.86197,-129.123,8.7859)">
        <g transform="matrix(77.3375,0,0,77.3375,150.753,113.937)">
            <path d="M0.7,-0L0.7,-0.272C0.7,-0.286 0.699,-0.3 0.697,-0.313C0.695,-0.326 0.691,-0.337 0.686,-0.346C0.681,-0.355 0.674,-0.363 0.665,-0.369C0.656,-0.374 0.644,-0.377 0.629,-0.377C0.615,-0.377 0.603,-0.374 0.593,-0.368C0.582,-0.362 0.574,-0.354 0.567,-0.344C0.56,-0.334 0.554,-0.323 0.551,-0.31C0.548,-0.297 0.546,-0.283 0.546,-0.269L0.546,-0L0.382,-0L0.382,-0.284C0.382,-0.313 0.376,-0.335 0.365,-0.352C0.354,-0.369 0.336,-0.377 0.311,-0.377C0.285,-0.377 0.265,-0.367 0.251,-0.346C0.236,-0.325 0.229,-0.3 0.229,-0.27L0.229,-0L0.064,-0L0.064,-0.498L0.223,-0.498L0.223,-0.429L0.225,-0.429C0.231,-0.44 0.239,-0.45 0.248,-0.46C0.257,-0.47 0.267,-0.479 0.28,-0.487C0.293,-0.494 0.307,-0.5 0.323,-0.505C0.338,-0.51 0.355,-0.512 0.374,-0.512C0.41,-0.512 0.44,-0.505 0.466,-0.49C0.491,-0.475 0.51,-0.454 0.524,-0.427C0.541,-0.453 0.562,-0.474 0.588,-0.489C0.614,-0.504 0.646,-0.512 0.683,-0.512C0.717,-0.512 0.745,-0.506 0.769,-0.494C0.792,-0.481 0.81,-0.465 0.824,-0.446C0.838,-0.426 0.848,-0.404 0.855,-0.38C0.861,-0.355 0.864,-0.331 0.864,-0.308L0.864,-0L0.7,-0Z" style="fill:rgb(102,102,102);fill-rule:nonzero;"/>
        </g>
        <g transform="matrix(77.3375,0,0,77.3375,241.547,113.937)">
            <path d="M0.592,-0.251C0.592,-0.21 0.585,-0.173 0.57,-0.141C0.555,-0.108 0.535,-0.08 0.51,-0.057C0.485,-0.034 0.455,-0.016 0.422,-0.003C0.389,0.01 0.353,0.016 0.315,0.016C0.278,0.016 0.242,0.01 0.209,-0.003C0.175,-0.016 0.146,-0.034 0.121,-0.057C0.095,-0.08 0.076,-0.108 0.061,-0.141C0.046,-0.173 0.039,-0.21 0.039,-0.251C0.039,-0.292 0.046,-0.328 0.061,-0.361C0.076,-0.394 0.095,-0.421 0.121,-0.444C0.146,-0.467 0.175,-0.484 0.209,-0.496C0.242,-0.508 0.278,-0.514 0.315,-0.514C0.353,-0.514 0.389,-0.508 0.422,-0.496C0.455,-0.484 0.485,-0.467 0.51,-0.444C0.535,-0.421 0.555,-0.394 0.57,-0.361C0.585,-0.328 0.592,-0.292 0.592,-0.251ZM0.434,-0.251C0.434,-0.267 0.431,-0.283 0.426,-0.298C0.421,-0.313 0.413,-0.327 0.403,-0.339C0.393,-0.35 0.381,-0.36 0.366,-0.367C0.351,-0.374 0.334,-0.378 0.315,-0.378C0.296,-0.378 0.279,-0.374 0.264,-0.367C0.249,-0.36 0.237,-0.35 0.228,-0.339C0.218,-0.327 0.211,-0.313 0.206,-0.298C0.201,-0.283 0.198,-0.267 0.198,-0.251C0.198,-0.235 0.201,-0.219 0.206,-0.204C0.211,-0.189 0.218,-0.175 0.228,-0.163C0.238,-0.15 0.25,-0.14 0.265,-0.133C0.28,-0.126 0.297,-0.122 0.316,-0.122C0.335,-0.122 0.352,-0.126 0.367,-0.133C0.382,-0.14 0.394,-0.15 0.404,-0.163C0.414,-0.175 0.422,-0.189 0.427,-0.204C0.432,-0.219 0.434,-0.235 0.434,-0.251Z" style="fill:rgb(102,102,102);fill-rule:nonzero;"/>
        </g>
        <g transform="matrix(77.3375,0,0,77.3375,309.759,113.937)">
            <path d="M0.391,-0L0.391,-0.272C0.391,-0.286 0.39,-0.299 0.388,-0.312C0.385,-0.325 0.381,-0.336 0.376,-0.346C0.371,-0.355 0.363,-0.363 0.354,-0.369C0.344,-0.374 0.332,-0.377 0.317,-0.377C0.302,-0.377 0.29,-0.374 0.279,-0.369C0.268,-0.363 0.258,-0.355 0.251,-0.345C0.244,-0.335 0.238,-0.324 0.235,-0.311C0.231,-0.298 0.229,-0.284 0.229,-0.27L0.229,-0L0.064,-0L0.064,-0.498L0.223,-0.498L0.223,-0.429L0.225,-0.429C0.231,-0.44 0.239,-0.45 0.249,-0.461C0.258,-0.471 0.27,-0.48 0.283,-0.487C0.296,-0.494 0.31,-0.5 0.325,-0.505C0.34,-0.51 0.357,-0.512 0.374,-0.512C0.407,-0.512 0.436,-0.506 0.459,-0.494C0.482,-0.482 0.501,-0.467 0.516,-0.448C0.53,-0.428 0.54,-0.407 0.547,-0.382C0.553,-0.357 0.556,-0.333 0.556,-0.308L0.556,-0L0.391,-0Z" style="fill:rgb(102,102,102);fill-rule:nonzero;"/>
        </g>
    </g>
    <g transform="matrix(12.5789,0,0,12.3696,386.421,322.036)">
        <path d="M0,3.374L-2.309,-1.815L-4.613,3.374L0,3.374ZM7.064,9.505L2.615,9.505L1.288,6.316L-5.912,6.316L-7.341,9.505L-11.786,9.505L-4.3,-6.131L-0.427,-6.131L7.064,9.505Z" style="fill:rgb(103,58,183);fill-rule:nonzero;"/>
    </g>
    <g transform="matrix(0.883294,0,0,0.794144,35.192,73.2561)">
        <g transform="matrix(15.9587,0,0,10.6403,-1567.94,108.443)">
            <rect x="106.404" y="17.909" width="4.165" height="15.637" style="fill:rgb(103,58,183);"/>
        </g>
        <g transform="matrix(15.9587,0,0,4.22271,-1567.94,138.081)">
            <rect x="106.404" y="17.909" width="4.165" height="15.637" style="fill:rgb(103,58,183);"/>
        </g>
    </g>
</svg>
