<?xml version="1.0" encoding="UTF-8" standalone="no"?><!DOCTYPE svg PUBLIC "-//W3C//DTD SVG 1.1//EN" "http://www.w3.org/Graphics/SVG/1.1/DTD/svg11.dtd"><svg width="100%" height="100%" viewBox="0 0 2492 2492" version="1.1" xmlns="http://www.w3.org/2000/svg" xmlns:xlink="http://www.w3.org/1999/xlink" xml:space="preserve" xmlns:serif="http://www.serif.com/" style="fill-rule:evenodd;clip-rule:evenodd;stroke-linejoin:round;stroke-miterlimit:2;"><g><circle cx="1236.16" cy="1285.21" r="1208.33" style="fill:#d5fe6c;"/></g><path d="M925.429,871.7l-1.079,-0c-8.995,15.6 -20.959,26.8 -35.891,33.6c-14.932,6.8 -30.673,10.2 -47.224,10.2c-12.233,-0 -24.017,-1.9 -35.351,-5.7c-11.334,-3.8 -21.318,-9.5 -29.954,-17.1c-8.635,-7.6 -15.471,-17 -20.508,-28.2c-5.038,-11.2 -7.556,-24.2 -7.556,-39c-0,-16.8 2.788,-31 8.365,-42.6c5.577,-11.6 13.133,-21.2 22.668,-28.8c9.535,-7.6 20.419,-13.5 32.652,-17.7c12.233,-4.2 24.916,-7.3 38.049,-9.3c13.133,-2 26.266,-3.2 39.399,-3.6c13.133,-0.4 25.276,-0.6 36.43,-0.6c0,-16 -5.127,-28.7 -15.381,-38.1c-10.255,-9.4 -22.398,-14.1 -36.431,-14.1c-13.312,-0 -25.456,3.1 -36.43,9.3c-10.974,6.2 -20.779,14.7 -29.414,25.5l-43.176,-49.2c15.111,-15.6 32.742,-27.3 52.891,-35.1c20.149,-7.8 41.018,-11.7 62.606,-11.7c23.747,-0 43.266,3.3 58.558,9.9c15.292,6.6 27.525,16.3 36.7,29.1c9.175,12.8 15.562,28.5 19.16,47.1c3.598,18.6 5.397,40.1 5.397,64.5l-0,148.2l-74.48,-0l0,-36.6Zm-19.969,-91.2c-6.117,-0 -13.763,0.3 -22.938,0.9c-9.175,0.6 -17.99,2.3 -26.445,5.1c-8.456,2.8 -15.652,7 -21.588,12.6c-5.937,5.6 -8.906,13.4 -8.906,23.4c0,10.8 4.138,18.8 12.414,24c8.275,5.2 16.91,7.8 25.906,7.8c7.915,-0 15.561,-1.2 22.937,-3.6c7.376,-2.4 13.943,-5.8 19.699,-10.2c5.757,-4.4 10.345,-10 13.763,-16.8c3.418,-6.8 5.127,-14.8 5.127,-24l0,-19.2l-19.969,-0Z" style="fill:#666;fill-rule:nonzero;"/><path d="M1363.13,710.9c-3.958,-6.4 -9.535,-11.7 -16.731,-15.9c-7.196,-4.2 -14.932,-6.3 -23.207,-6.3c-20.509,-0 -36.43,6.8 -47.764,20.4c-11.334,13.6 -17.001,31.4 -17.001,53.4c0,22 5.667,39.8 17.001,53.4c11.334,13.6 27.255,20.4 47.764,20.4c8.995,-0 16.731,-2.2 23.207,-6.6c6.477,-4.4 12.054,-9.6 16.731,-15.6l53.431,62.4c-12.593,14.4 -27.435,24.5 -44.526,30.3c-17.09,5.8 -33.371,8.7 -48.843,8.7c-20.149,-0 -39.129,-3.6 -56.939,-10.8c-17.81,-7.2 -33.282,-17.5 -46.415,-30.9c-13.133,-13.4 -23.477,-29.5 -31.033,-48.3c-7.556,-18.8 -11.334,-39.8 -11.334,-63c0,-23.2 3.778,-44.2 11.334,-63c7.556,-18.8 17.9,-34.9 31.033,-48.3c13.133,-13.4 28.605,-23.7 46.415,-30.9c17.81,-7.2 36.79,-10.8 56.939,-10.8c15.472,-0 31.753,2.9 48.843,8.7c17.091,5.8 31.933,15.9 44.526,30.3l-53.431,62.4Z" style="fill:#666;fill-rule:nonzero;"/><path d="M1759.28,688.7l-71.241,-0l-0,97.2c-0,8 0.36,15.3 1.079,21.9c0.72,6.6 2.339,12.3 4.857,17.1c2.519,4.8 6.387,8.5 11.604,11.1c5.217,2.6 12.144,3.9 20.779,3.9c4.318,-0 9.984,-0.5 17.001,-1.5c7.016,-1 12.323,-3.3 15.921,-6.9l-0,75c-8.995,3.6 -18.35,6 -28.065,7.2c-9.714,1.2 -19.249,1.8 -28.604,1.8c-13.673,-0 -26.266,-1.6 -37.78,-4.8c-11.513,-3.2 -21.588,-8.3 -30.223,-15.3c-8.636,-7 -15.382,-16.1 -20.239,-27.3c-4.858,-11.2 -7.286,-24.8 -7.286,-40.8l-0,-138.6l-51.812,-0l-0,-72l51.812,-0l-0,-86.4l80.956,-0l-0,86.4l71.241,-0l-0,72Z" style="fill:#666;fill-rule:nonzero;"/><path d="M1610.09,1515.71l-121.019,-267.441l-120.758,267.441l241.777,0Zm370.239,315.992l-233.181,-0l-69.551,-164.361l-377.367,-0l-74.897,164.361l-232.971,-0l392.356,-805.879l202.992,0l392.619,805.879Z" style="fill:#673ab7;fill-rule:nonzero;"/><g><rect x="625.552" y="1294.61" width="244.628" height="550.549" style="fill:#673ab7;"/><rect x="625.552" y="1012.37" width="244.628" height="218.491" style="fill:#673ab7;"/></g></svg>