<?xml version="1.0" encoding="UTF-8" standalone="no"?>
<!DOCTYPE svg PUBLIC "-//W3C//DTD SVG 1.1//EN" "http://www.w3.org/Graphics/SVG/1.1/DTD/svg11.dtd">
<svg width="100%" height="100%" viewBox="0 0 1144 293" version="1.1" xmlns="http://www.w3.org/2000/svg" xmlns:xlink="http://www.w3.org/1999/xlink" xml:space="preserve" xmlns:serif="http://www.serif.com/" style="fill-rule:evenodd;clip-rule:evenodd;stroke-linejoin:round;stroke-miterlimit:2;">
    <g transform="matrix(1.33333,0,0,1.33333,-443.229,-307.294)">
        <rect id="Plan-de-travail1" serif:id="Plan de travail1" x="0" y="0" width="1400" height="900" style="fill:none;"/>
        <g id="Plan-de-travail11" serif:id="Plan de travail1">
            <g transform="matrix(1,0,0,1,-95.1762,31.1514)">
                <g transform="matrix(300,0,0,300,403.898,415.919)">
                    <path d="M0.079,-0L0.079,-0.705L0.192,-0.705L0.451,-0.122L0.42,-0.122L0.679,-0.705L0.791,-0.705L0.791,-0L0.674,-0L0.674,-0.523L0.71,-0.523L0.473,-0L0.396,-0L0.159,-0.523L0.196,-0.523L0.196,-0L0.079,-0Z" style="fill:rgb(8,223,197);fill-rule:nonzero;"/>
                </g>
                <g transform="matrix(300,0,0,300,658.298,415.919)">
                    <path d="M0.296,0.01C0.244,0.01 0.199,-0.001 0.161,-0.022C0.123,-0.043 0.094,-0.074 0.073,-0.113C0.051,-0.152 0.041,-0.199 0.041,-0.253C0.041,-0.307 0.051,-0.354 0.073,-0.393C0.094,-0.432 0.123,-0.462 0.161,-0.483C0.199,-0.504 0.244,-0.515 0.296,-0.515C0.348,-0.515 0.393,-0.504 0.432,-0.483C0.47,-0.462 0.5,-0.431 0.521,-0.392C0.542,-0.353 0.552,-0.307 0.552,-0.253C0.552,-0.199 0.542,-0.152 0.521,-0.113C0.5,-0.074 0.47,-0.043 0.432,-0.022C0.393,-0.001 0.348,0.01 0.296,0.01ZM0.296,-0.086C0.335,-0.086 0.367,-0.1 0.39,-0.128C0.413,-0.155 0.425,-0.197 0.425,-0.253C0.425,-0.309 0.413,-0.351 0.39,-0.378C0.366,-0.405 0.335,-0.419 0.296,-0.419C0.257,-0.419 0.225,-0.405 0.202,-0.378C0.179,-0.351 0.167,-0.309 0.167,-0.253C0.167,-0.197 0.179,-0.155 0.202,-0.128C0.225,-0.1 0.257,-0.086 0.296,-0.086Z" style="fill:rgb(238,71,89);fill-rule:nonzero;"/>
                </g>
                <g transform="matrix(300,0,0,300,824.198,415.919)">
                    <path d="M0.068,-0L0.068,-0.379C0.068,-0.4 0.067,-0.421 0.066,-0.442C0.065,-0.463 0.063,-0.484 0.06,-0.505L0.181,-0.505L0.191,-0.405L0.179,-0.405C0.195,-0.44 0.219,-0.468 0.25,-0.487C0.281,-0.505 0.318,-0.515 0.359,-0.515C0.418,-0.515 0.463,-0.498 0.493,-0.465C0.523,-0.432 0.538,-0.38 0.538,-0.309L0.538,-0L0.413,-0L0.413,-0.303C0.413,-0.344 0.405,-0.373 0.39,-0.391C0.374,-0.408 0.35,-0.417 0.319,-0.417C0.28,-0.417 0.25,-0.405 0.227,-0.381C0.204,-0.357 0.193,-0.325 0.193,-0.285L0.193,-0L0.068,-0Z" style="fill:rgb(255,152,50);fill-rule:nonzero;"/>
                </g>
                <g transform="matrix(300,0,0,300,995.198,415.919)">
                    <path d="M0.068,-0L0.068,-0.505L0.193,-0.505L0.193,-0L0.068,-0ZM0.061,-0.6L0.061,-0.722L0.2,-0.722L0.2,-0.6L0.061,-0.6Z" style="fill:rgb(103,58,183);fill-rule:nonzero;"/>
                </g>
                <g transform="matrix(300,0,0,300,1060.6,415.919)">
                    <path d="M0,-0L0.319,-0.705L0.427,-0.705L0.75,-0L0.619,-0L0.533,-0.198L0.585,-0.163L0.162,-0.163L0.216,-0.198L0.13,-0L0,-0ZM0.372,-0.567L0.231,-0.233L0.205,-0.264L0.541,-0.264L0.52,-0.233L0.376,-0.567L0.372,-0.567Z" style="fill:rgb(8,223,197);fill-rule:nonzero;"/>
                </g>
            </g>
        </g>
    </g>
</svg>
