<svg xmlns="http://www.w3.org/2000/svg" viewBox="0 0 24 24" id="Microphone"><path d="M12.56 4.13c.71 0 1.29.58 1.29 1.29v3.77c0 .71-.58 1.29-1.29 1.29-.71 0-1.29-.58-1.29-1.29V5.42c0-.71.58-1.29 1.29-1.29zm0-2.12c-1.88 0-3.41 1.53-3.41 3.41v3.77c0 1.88 1.53 3.41 3.41 3.41 1.88 0 3.41-1.53 3.41-3.41V5.42c0-1.89-1.52-3.41-3.41-3.41z" fill="#673ab7" class="color000000 svgShape"></path><path d="M19.62 9.07c0 3.54-2.61 6.48-6.02 6.98l-.05 3.02-2.12-.04.05-2.99A7.053 7.053 0 0 1 5.5 9.07c0-.2.01-.41.03-.61h2.13c-.02.2-.04.4-.04.61 0 2.72 2.22 4.94 4.94 4.94s4.94-2.22 4.94-4.94c0-.2-.01-.41-.04-.61h2.13c.02.2.03.4.03.61zM8.96 19.87h7.01v2.12H8.96z" fill="#673ab7" class="color000000 svgShape"></path></svg>