<svg xmlns="http://www.w3.org/2000/svg" xmlns:xlink="http://www.w3.org/1999/xlink" data-name="Layer 3" viewBox="0 0 24 24" id="CommentSlash"><defs><linearGradient id="a" x1="4.06" x2="20.53" y1="2.32" y2="18.8" gradientUnits="userSpaceOnUse"><stop offset="0" stop-color="#717171" class="stopColor13cfcf svgShape"></stop><stop offset=".4" stop-color="#ffffff" class="stopColor2cb4fe svgShape"></stop><stop offset="1" stop-color="#808080" class="stopColor2285dd svgShape"></stop></linearGradient><linearGradient id="b" x1="4.3" x2="20.78" y1="2.08" y2="18.55" xlink:href="#a"></linearGradient><linearGradient id="c" x1="3.19" x2="19.67" y1="3.19" y2="19.67" xlink:href="#a"></linearGradient></defs><path fill="url(#a)" d="M7.21,17.54h-1.01c-.87,0-1.68-.38-2.28-1.06-.6-.65-.95-1.58-.95-2.54V6.59c0-1.98,1.45-3.6,3.23-3.6h11.6c.83,0,1.63,.36,2.24,1.01,.28,.3,.27,.78-.03,1.06s-.78,.27-1.06-.03c-.23-.24-.61-.53-1.14-.53H6.2c-.95,0-1.73,.94-1.73,2.1v7.35c0,.59,.2,1.15,.56,1.53,.33,.37,.74,.57,1.17,.57h1.01c.41,0,.75,.34,.75,.75s-.34,.75-.75,.75Z"></path><path fill="url(#b)" d="M12,21c-.47,0-.91-.22-1.21-.6l-1.65-2.15c-.25-.33-.19-.8,.14-1.05,.33-.25,.8-.19,1.05,.14l1.64,2.14,1.98-2.51c.45-.59,1.12-.93,1.83-.93h2.01c.95,0,1.73-.94,1.73-2.1V7.26c0-.41,.34-.75,.75-.75s.75,.34,.75,.75v6.68c0,1.98-1.45,3.6-3.23,3.6h-2.01c-.24,0-.48,.12-.64,.34l-1.93,2.51c-.31,.39-.75,.61-1.21,.61Z"></path><path fill="url(#c)" d="M4,20.75c-.19,0-.38-.07-.53-.22-.29-.29-.29-.77,0-1.06L19.47,3.47c.29-.29,.77-.29,1.06,0s.29,.77,0,1.06L4.53,20.53c-.15,.15-.34,.22-.53,.22Z"></path></svg>