<svg xmlns="http://www.w3.org/2000/svg" enable-background="new 0 0 50 50" viewBox="0 0 50 50" id="microphone"><path fill="#5b5b5e" d="M32.8,47.1L32.8,47.1c0,1-0.8,1.8-1.8,1.8H19.1c-1,0-1.8-0.8-1.8-1.8l0,0c0-1,0.8-1.8,1.8-1.8h3.6v-8.5h4.7
		v8.5h3.6C32,45.3,32.8,46.1,32.8,47.1z"></path><rect width="4.7" height="4.3" x="22.7" y="36.8" fill="#4a4a4f"></rect><path fill="#5b5b5e" d="M30.6,38.7H19.4c-4.8,0-8.6-3.9-8.6-8.6V14.9c0-0.8,0.7-1.5,1.5-1.5h25.4c0.8,0,1.5,0.7,1.5,1.5V30
			C39.2,34.8,35.4,38.7,30.6,38.7z M13.8,16.4V30c0,3.1,2.5,5.6,5.6,5.6h11.2c3.1,0,5.6-2.5,5.6-5.6V16.4H13.8z"></path><path fill="#4a4a4f" d="M36.2,13.4H13.8v3h22.4V13.4z"></path><path fill="#fff" d="M37.7,13.4H12.3c-0.8,0-1.5,0.7-1.5,1.5v4.9c0.8,1.4,1.8,2.8,3,4.1v-7.5h22.4V30c0,1.9-1,3.6-2.4,4.6
		c1.4,0.2,2.7,0.3,3.9,0.2c1-1.4,1.5-3.1,1.5-4.9V14.9C39.2,14.1,38.6,13.4,37.7,13.4z" opacity=".15"></path><path fill="#dbdcdd" d="M34.9,5.5v22.2c0,2.4-2,4.4-4.4,4.4h-11c-2.4,0-4.4-2-4.4-4.4V5.5c0-2.4,2-4.4,4.4-4.4h11
		C32.9,1.1,34.9,3,34.9,5.5z"></path><path fill="#eaeaea" d="M20.2,29.6c-1.8,0-3.2-1.4-3.2-3.2V5.3c0-1.8,1.4-3.2,3.2-3.2h10.5c1.8,0,3.2,1.4,3.2,3.2v21.1
		c0,1.8-1.4,3.2-3.2,3.2H20.2z"></path><path fill="#5b5b5e" d="M20 1.1v3.8C20 5.5 20.5 6 21.1 6c.6 0 1.1-.5 1.1-1.1V1.1H20zM23.9 1.1v3.8C23.9 5.5 24.4 6 25 6c.6 0 1.1-.5 1.1-1.1V1.1H23.9zM27.9 1.1v3.8c0 .6.5 1.1 1.1 1.1C29.5 6 30 5.5 30 4.9V1.1H27.9zM34.9 7.6v2.1h-6.3c-.6 0-1.1-.5-1.1-1.1 0-.6.5-1.1 1.1-1.1H34.9zM34.9 11.6v2.1h-6.3c-.6 0-1.1-.5-1.1-1.1 0-.6.5-1.1 1.1-1.1H34.9zM34.9 15.5v2.1h-6.3c-.6 0-1.1-.5-1.1-1.1 0-.6.5-1.1 1.1-1.1H34.9zM34.9 19.4v2.1h-6.3c-.6 0-1.1-.5-1.1-1.1 0-.6.5-1.1 1.1-1.1H34.9zM15.1 7.6v2.1h6.3c.6 0 1.1-.5 1.1-1.1 0-.6-.5-1.1-1.1-1.1H15.1zM15.1 11.6v2.1h6.3c.6 0 1.1-.5 1.1-1.1 0-.6-.5-1.1-1.1-1.1H15.1zM15.1 15.5v2.1h6.3c.6 0 1.1-.5 1.1-1.1 0-.6-.5-1.1-1.1-1.1H15.1zM15.1 19.4v2.1h6.3c.6 0 1.1-.5 1.1-1.1 0-.6-.5-1.1-1.1-1.1H15.1zM34.9 23.4v2.1h-6.3c-.6 0-1.1-.5-1.1-1.1 0-.6.5-1.1 1.1-1.1H34.9zM15.1 23.4v2.1h6.3c.6 0 1.1-.5 1.1-1.1 0-.6-.5-1.1-1.1-1.1H15.1z"></path><path fill="#fff" d="M34.9,5.5v22.2c0,0.4,0,0.8-0.1,1.1C29.6,27.4,24.3,24,20.2,19c-2.2-2.7-3.9-5.6-5.1-8.5v-5
		c0-2.4,2-4.4,4.4-4.4h11C32.9,1.1,34.9,3,34.9,5.5z" opacity=".3"></path></svg>