<svg xmlns="http://www.w3.org/2000/svg" viewBox="0 0 32 32" id="StopRecording"><g data-name="Layer 2" fill="#658794" class="color000000 svgShape"><path d="m20.85 20.59-1.6-1.2A4 4 0 0 0 20 17V7a4 4 0 0 0-8 0v4.25h-2V7a6 6 0 0 1 12 0v10a6 6 0 0 1-1.15 3.59Z" fill="#658794" class="color000000 svgShape"></path><rect width="4" height="2" x="14.05" y="29" rx="1" ry="1" fill="#658794" class="color000000 svgShape"></rect><rect width="2" height="31.44" x="15" y=".28" rx="1" ry="1" transform="rotate(-45.13 15.997 16.003)" fill="#658794" class="color000000 svgShape"></rect><path d="M19.53 24.63a8 8 0 0 1-4.5.73A8.28 8.28 0 0 1 8 17v-2a1 1 0 0 0-2 0v2a10.31 10.31 0 0 0 9 10.37 10 10 0 0 0 5.38-.94 1 1 0 0 0 .25-1.6 1 1 0 0 0-1.1-.2zm3.6-.13a10 10 0 0 0 3-7.17V15a1 1 0 0 0-2 0v2.35a8.06 8.06 0 0 1-2.42 5.76z" fill="#658794" class="color000000 svgShape"></path></g></svg>